<svg xmlns="http://www.w3.org/2000/svg" width="100" height="100" viewBox="0 0 100 100">
  <g fill="none">
    <path fill="#B9A284" d="M99.244,49.622 C99.244,77.03 77.03,99.244 49.622,99.244 C22.215,99.244 0,77.03 0,49.622 C0,22.215 22.215,0 49.622,0 C77.03,0 99.244,22.215 99.244,49.622"/>
    <path fill="#FFFFFF" d="M14.8,49.624 C14.8,30.391 30.39,14.802 49.621,14.802 C68.853,14.802 84.443,30.391 84.443,49.624 C84.443,68.856 68.853,84.444 49.621,84.444 C30.391,84.443 14.8,68.855 14.8,49.624"/>
    <path fill="#DE6E62" d="M33.292,68.133 C32.666,68.446 31.911,68.324 31.416,67.828 C30.921,67.334 30.798,66.579 31.112,65.952 L42.724,42.726 L65.95,31.113 C66.576,30.799 67.331,30.922 67.827,31.417 C68.321,31.912 68.444,32.668 68.132,33.294 L56.52,56.521 L33.292,68.133 Z"/>
    <path fill="#36312A" d="M47.004 30.656C46.014 30.656 45.505 29.904 45.873 28.985L49.037 21.082C49.405 20.163 50.008 20.163 50.376 21.082L53.54 28.985C53.908 29.904 53.399 30.656 52.409 30.656L47.004 30.656zM47.004 68.619C46.014 68.619 45.505 69.371 45.873 70.29L49.037 78.192C49.405 79.112 50.008 79.112 50.376 78.192L53.54 70.29C53.908 69.371 53.399 68.619 52.409 68.619L47.004 68.619zM30.557 52.34C30.557 53.33 29.805 53.839 28.886 53.471L20.983 50.307C20.064 49.939 20.064 49.337 20.983 48.969L28.886 45.804C29.805 45.436 30.557 45.945 30.557 46.935L30.557 52.34zM68.632 52.34C68.632 53.33 69.384 53.839 70.303 53.471L78.206 50.307C79.125 49.939 79.125 49.337 78.206 48.969L70.303 45.804C69.384 45.436 68.632 45.945 68.632 46.935L68.632 52.34z"/>
    <path fill="#FFFFFF" d="M53.656,49.342 C53.656,51.52 51.89,53.286 49.713,53.286 C47.536,53.286 45.77,51.519 45.77,49.342 C45.77,47.164 47.536,45.398 49.713,45.398 C51.891,45.398 53.656,47.164 53.656,49.342"/>
  </g>
</svg>
